Coordinates
version=1
nRows=7
nColumns=40
inDegrees=yes

Units are S.I. units (second, meters, Newtons, ...)
If the header above contains a line with 'inDegrees', this indicates whether rotational values are in degrees (yes) or radians (no).

endheader
time	pelvis_tilt	pelvis_list	pelvis_rotation	pelvis_tx	pelvis_ty	pelvis_tz	hip_flexion_r	hip_adduction_r	hip_rotation_r	knee_angle_r	knee_angle_r_beta	ankle_angle_r	subtalar_angle_r	mtp_angle_r	hip_flexion_l	hip_adduction_l	hip_rotation_l	knee_angle_l	knee_angle_l_beta	ankle_angle_l	subtalar_angle_l	mtp_angle_l	lumbar_extension	lumbar_bending	lumbar_rotation	arm_flex_r	arm_add_r	arm_rot_r	elbow_flex_r	pro_sup_r	wrist_flex_r	wrist_dev_r	arm_flex_l	arm_add_l	arm_rot_l	elbow_flex_l	pro_sup_l	wrist_flex_l	wrist_dev_l
      0.15000000	     20.64017000	      5.49556472	    -15.16455952	      0.03612255	      0.87741920	     -0.17946267	    -27.80525388	    -16.41293209	      0.61211173	     46.96073110	      0.81961938	    -18.81844379	      0.00000000	      0.00000000	      2.07580317	      6.98520849	    -18.60730989	     26.50657523	      0.46262701	      5.41120527	      0.00000000	      0.00000000	    -33.45615948	    -17.69003241	      8.87034131	     22.68399359	     -8.70779321	      8.44300368	     69.84708304	     84.12961526	     -7.72513812	      8.31903141	    -20.78074056	     -9.88640867	     16.80941674	     19.09088773	     89.04893186	     14.78480929	     24.32821182
      0.16000000	     20.85736579	      6.28465544	    -14.92979088	      0.05178702	      0.87835115	     -0.18089641	    -25.99754223	    -17.27760346	      0.89221469	     50.12951114	      0.87492502	    -18.05988436	      0.00000000	      0.00000000	      1.02261317	      8.19553217	    -18.68045769	     26.59668117	      0.46419966	      6.06431963	      0.00000000	      0.00000000	    -33.94490919	    -18.18368121	      7.75252306	     22.08150876	     -8.31737759	      8.71156830	     68.78127997	     84.10739887	     -7.66975168	      8.29217847	    -19.63243694	    -10.14129845	     16.04380869	     20.04042541	     89.07511925	     14.08914483	     24.18402193
      0.17000000	     20.86285726	      7.01716108	    -14.56884342	      0.06729851	      0.87929756	     -0.18250757	    -23.89525404	    -17.96954611	      1.13099436	     53.12334789	      0.92717733	    -16.43115695	      0.00000000	      0.00000000	      0.06032961	      9.30176639	    -18.68414065	     26.47644210	      0.46210109	      6.90327971	      0.00000000	      0.00000000	    -34.22881511	    -18.49948345	      6.67405500	     21.28498079	     -7.91708565	      8.80204548	     67.52758735	     84.16297419	     -7.62590068	      8.33666445	    -18.35048456	    -10.42057239	     15.20065442	     21.03508222	     89.10650423	     13.20837303	     23.90469591
      0.18000000	     20.87975008	      7.52692491	    -14.18541732	      0.08209331	      0.88076892	     -0.18415824	    -21.72210239	    -18.31003267	      1.65470571	     55.76274407	      0.97324348	    -14.39565744	      0.00000000	      0.00000000	     -1.05601548	     10.21758516	    -18.44240707	     26.09805410	      0.45549697	      7.65826734	      0.00000000	      0.00000000	    -34.69090695	    -18.62351969	      5.65557292	     20.43448254	     -7.55448104	      8.80242555	     66.23277946	     84.30784971	     -7.48640529	      8.32249773	    -16.90336077	    -10.61933856	     14.00206482	     22.14159558	     89.13313327	     11.95696639	     23.49515789
      0.19000000	     20.84636688	      7.85425683	    -13.62482271	      0.09695377	      0.88249659	     -0.18599444	    -19.59112742	    -18.36494489	      1.98177976	     57.98825765	      1.01208602	    -11.76527280	      0.00000000	      0.00000000	     -2.32311529	     10.93185353	    -18.09197665	     25.48568686	      0.44480915	      8.46416569	      0.00000000	      0.00000000	    -35.10931915	    -18.43332047	      4.70694474	     19.34929540	     -7.21620282	      8.60630598	     64.90344529	     84.43086076	     -7.35825629	      8.37893812	    -15.33013640	    -10.80575404	     12.83053030	     23.23050028	     89.14872660	     10.80780512	     22.99770787
      0.20000000	     20.70576735	      8.09765616	    -13.12361862	      0.11143993	      0.88425872	     -0.18790102	    -17.22589995	    -18.32828181	      2.34751437	     59.92139059	      1.04582556	     -8.89048433	      0.00000000	      0.00000000	     -3.52996277	     11.55372183	    -17.65292620	     24.75023989	      0.43197318	      9.09812311	      0.00000000	      0.00000000	    -35.43814795	    -18.15538756	      3.72703742	     18.34202386	     -6.85335464	      8.49504836	     63.23893686	     84.82807170	     -6.96428118	      8.44847872	    -13.90042962	    -10.84971908	     10.88510370	     24.69765009	     89.19008148	      8.84299932	     22.19509013
      0.21000000	     20.64053901	      8.07470894	    -12.41134397	      0.12589137	      0.88646373	     -0.19007920	    -15.17703810	    -17.88432546	      2.55706406	     61.19939195	      1.06813089	     -5.81032535	      0.00000000	      0.00000000	     -4.98767170	     11.90380259	    -16.98067656	     23.85569454	      0.41636042	      9.74474216	      0.00000000	      0.00000000	    -35.91127616	    -17.50323971	      2.85401673	     17.13518135	     -6.58485784	      8.12588560	     61.70141576	     85.03793804	     -6.73019754	      8.54099326	    -12.25350085	    -10.87293144	      9.20286180	     26.03157387	     89.20768168	      7.42186240	     21.37059385
